<?xml version="1.0" encoding="UTF-8"?>
<svg width="24" height="24" viewBox="0 0 24 24" fill="none" xmlns="http://www.w3.org/2000/svg">
  <path d="M12 2C6.48 2 2 6.48 2 12C2 17.52 6.48 22 12 22C17.52 22 22 17.52 22 12C22 6.48 17.52 2 12 2ZM12 5C13.66 5 15 6.34 15 8C15 9.66 13.66 11 12 11C10.34 11 9 9.66 9 8C9 6.34 10.34 5 12 5ZM12 19.2C9.5 19.2 7.29 17.92 6 15.98C6.03 13.99 10 12.9 12 12.9C13.99 12.9 17.97 13.99 18 15.98C16.71 17.92 14.5 19.2 12 19.2Z" fill="currentColor"/>
  <path d="M15.5 8.5C15.5 9.33 14.83 10 14 10C13.17 10 12.5 9.33 12.5 8.5C12.5 7.67 13.17 7 14 7C14.83 7 15.5 7.67 15.5 8.5Z" fill="currentColor"/>
  <path d="M8.5 8.5C8.5 9.33 9.17 10 10 10C10.83 10 11.5 9.33 11.5 8.5C11.5 7.67 10.83 7 10 7C9.17 7 8.5 7.67 8.5 8.5Z" fill="currentColor"/>
</svg>